<?xml version="1.0" standalone="no"?>
<!DOCTYPE svg PUBLIC "-//W3C//DTD SVG 20010904//EN"
 "http://www.w3.org/TR/2001/REC-SVG-20010904/DTD/svg10.dtd">
<svg version="1.0" xmlns="http://www.w3.org/2000/svg"
 width="256.000000pt" height="256.000000pt" viewBox="0 0 256.000000 256.000000"
 preserveAspectRatio="xMidYMid meet">
<g transform="translate(0.000000,256.000000) scale(0.100000,-0.100000)"
fill="#000000" stroke="none">
<path d="M382 1987 c-47 -15 -116 -79 -141 -132 -21 -44 -21 -54 -21 -688 0
-487 3 -646 12 -655 16 -16 60 -15 84 2 18 14 19 35 24 650 l5 636 38 37 37
38 860 0 860 0 37 -38 38 -37 5 -636 c5 -615 6 -636 24 -650 24 -17 68 -18 84
-2 17 17 17 1263 0 1322 -16 55 -99 138 -154 154 -54 16 -1742 15 -1792 -1z"/>
<path d="M32 388 c-16 -16 -16 -148 0 -202 16 -55 99 -138 154 -154 60 -17
2128 -17 2188 0 55 16 138 99 154 154 16 54 16 186 0 202 -9 9 -109 12 -390
12 -365 0 -379 -1 -398 -20 -11 -11 -20 -29 -20 -40 0 -11 9 -29 20 -40 19
-19 33 -20 351 -20 l331 0 -6 -32 c-4 -18 -22 -49 -41 -68 l-35 -35 -1060 0
-1060 0 -35 35 c-19 19 -37 50 -41 68 l-6 32 331 0 c318 0 332 1 351 20 25 25
25 55 0 80 -19 19 -33 20 -398 20 -281 0 -381 -3 -390 -12z"/>
<path d="M1040 380 c-11 -11 -20 -29 -20 -40 0 -11 9 -29 20 -40 19 -19 33
-20 240 -20 207 0 221 1 240 20 11 11 20 29 20 40 0 11 -9 29 -20 40 -19 19
-33 20 -240 20 -207 0 -221 -1 -240 -20z"/>
</g>
</svg>
